Coordinates
version=1
nRows=5
nColumns=40
inDegrees=yes

Units are S.I. units (second, meters, Newtons, ...)
Angles are in degrees.

endheader
time	pelvis_tilt	pelvis_list	pelvis_rotation	pelvis_tx	pelvis_ty	pelvis_tz	hip_flexion_r	hip_adduction_r	hip_rotation_r	knee_angle_r	knee_angle_r_beta	ankle_angle_r	subtalar_angle_r	mtp_angle_r	hip_flexion_l	hip_adduction_l	hip_rotation_l	knee_angle_l	knee_angle_l_beta	ankle_angle_l	subtalar_angle_l	mtp_angle_l	lumbar_extension	lumbar_bending	lumbar_rotation	arm_flex_r	arm_add_r	arm_rot_r	elbow_flex_r	pro_sup_r	wrist_flex_r	wrist_dev_r	arm_flex_l	arm_add_l	arm_rot_l	elbow_flex_l	pro_sup_l	wrist_flex_l	wrist_dev_l
      4.77000000	     -3.61107657	     -4.85512352	      3.65130184	      0.84285166	      0.93283150	      0.47757038	     11.99332563	      3.58092343	    -17.92958669	     15.28114574	     15.28114574	      8.93976700	      0.73389113	     -2.67136728	     29.43350890	    -11.92320462	      0.45000166	     62.16495844	     62.16495844	     11.02758723	    -18.80757612	     15.26869417	     -8.73137565	      5.66512124	      3.41710908	     22.44837106	    -18.72615549	     -0.76553569	    106.94857184	     44.11030425	      0.00000000	      0.00000000	      9.51798255	     -6.18218755	      6.94713807	     28.17899439	     44.21546060	      0.00000000	      0.00000000
      4.78271429	     -3.86012635	     -4.78542086	      3.81313997	      0.84145462	      0.93291393	      0.47787218	     11.62105628	      3.60438191	    -17.93339061	     14.96320364	     14.96320364	      9.22039563	      0.68215894	     -2.70010788	     30.53532006	    -11.77068190	      0.27210865	     59.69274688	     59.69274688	     11.30540936	    -18.81128236	     15.37389265	     -8.58285109	      5.62162608	      3.76672350	     24.00458714	    -19.12324464	     -1.29874562	    107.79378174	     44.11191585	      0.00000000	      0.00000000	      8.01752263	     -6.49450495	      6.93456517	     27.58707754	     44.19996353	      0.00000000	      0.00000000
      4.79542857	     -3.87957366	     -4.70347056	      4.06784420	      0.84021366	      0.93336437	      0.47810035	     10.75432683	      3.71030418	    -17.96117911	     14.16352375	     14.16352375	      9.40585007	      0.78374732	     -2.64491209	     31.14990283	    -11.50606423	      0.19985118	     56.82249930	     56.82249930	     11.37607298	    -18.85061576	     15.27189147	     -8.78377895	      5.65788270	      3.49190119	     26.00180350	    -18.63713403	     -1.85463508	    110.01482831	     44.08607773	      0.00000000	      0.00000000	      6.39845828	     -7.07389147	      7.03107335	     26.89279702	     44.18582202	      0.00000000	      0.00000000
      4.80814286	     -4.06458865	     -4.58456722	      4.25999492	      0.83879971	      0.93340923	      0.47824878	     10.25762207	      3.69985781	    -17.96543754	     13.71611538	     13.71611538	      9.67820035	      0.79025255	     -2.68166666	     31.79451394	    -11.13558443	      0.12247156	     53.75280341	     53.75280341	     11.44607650	    -18.81632847	     15.40638362	     -8.76888059	      5.56099918	      3.68456946	     27.75530488	    -18.87179963	     -2.40489767	    111.13573727	     44.08425044	      0.00000000	      0.00000000	      4.98362616	     -7.50226979	      7.06868571	     26.35904471	     44.16800271	      0.00000000	      0.00000000
      4.82085714	     -4.24869295	     -4.47829942	      4.44027440	      0.83743834	      0.93337251	      0.47824667	      9.75115888	      3.69466423	    -17.97592752	     13.24153543	     13.24153543	      9.92439838	      0.83313277	     -2.71636671	     32.27939010	    -10.70284580	      0.12047539	     50.46079830	     50.46079830	     11.45092480	    -18.67952922	     15.57012224	     -8.72450547	      5.51284690	      3.79566704	     29.51493234	    -19.02177320	     -2.94003082	    112.29585157	     44.07969150	      0.00000000	      0.00000000	      3.53659770	     -7.88781470	      7.11707974	     25.83781656	     44.14516665	      0.00000000	      0.00000000
